<?xml version="1.0" standalone="no"?>
<!DOCTYPE svg PUBLIC "-//W3C//DTD SVG 20010904//EN"
 "http://www.w3.org/TR/2001/REC-SVG-20010904/DTD/svg10.dtd">
<svg version="1.0" xmlns="http://www.w3.org/2000/svg"
 width="1500.000000pt" height="1500.000000pt" viewBox="0 0 1500.000000 1500.000000"
 preserveAspectRatio="xMidYMid meet">

<g transform="translate(0.000000,1500.000000) scale(0.100000,-0.100000)"
fill="#000000" stroke="none">
<path d="M0 7500 l0 -7500 7500 0 7500 0 0 7500 0 7500 -7500 0 -7500 0 0
-7500z m9790 3091 c0 -5 -14 -51 -31 -103 -69 -207 -219 -467 -379 -658 -40
-47 -134 -148 -211 -225 l-139 -140 9 -125 9 -125 -116 -117 c-64 -65 -120
-118 -123 -118 -3 0 -21 42 -39 93 -18 50 -37 102 -41 115 l-9 23 -70 -38 -70
-38 -127 127 c-123 123 -127 129 -114 150 8 13 26 43 39 67 30 52 32 49 -93
91 -49 17 -97 35 -105 40 -12 7 9 33 103 126 l118 117 127 -6 127 -7 135 133
c74 72 173 164 220 203 205 173 448 315 665 389 111 38 115 39 115 26z m-2910
-339 c-129 -88 -295 -243 -389 -361 -117 -147 -235 -344 -277 -465 -14 -39
-14 -39 27 -83 69 -75 91 -157 65 -245 -27 -94 -103 -169 -185 -183 l-38 -6
-6 -98 c-9 -145 21 -457 47 -500 3 -4 28 -11 56 -14 28 -3 73 -18 101 -34 103
-56 163 -160 164 -283 0 -81 -12 -119 -58 -189 -29 -45 -29 -45 -11 -75 69
-118 243 -313 373 -418 234 -189 532 -331 808 -383 l93 -18 41 47 c58 66 109
90 189 90 82 1 148 -31 198 -94 20 -25 37 -46 38 -48 4 -7 162 20 259 45 260
65 508 189 719 362 117 96 304 301 345 379 37 70 12 -46 -44 -208 -181 -522
-548 -951 -1035 -1208 -208 -110 -469 -193 -711 -227 -148 -20 -429 -20 -579
0 -648 89 -1230 475 -1560 1035 -137 231 -220 456 -270 730 -28 147 -38 450
-21 600 84 732 532 1374 1186 1697 86 43 231 100 335 132 145 45 180 50 140
23z m104 -331 c25 -27 17 -72 -15 -90 -24 -13 -29 -13 -53 2 -17 12 -26 26
-26 44 0 55 59 83 94 44z m-152 -430 c22 -25 28 -41 28 -77 0 -39 -5 -51 -34
-80 -28 -28 -42 -34 -75 -34 -93 0 -148 89 -106 170 35 68 135 79 187 21z
m1573 -281 c67 -67 106 -113 100 -118 -6 -5 -29 -20 -53 -33 l-43 -23 -91 91
-90 91 28 51 c16 28 31 51 34 51 3 0 55 -49 115 -110z m-125 -125 l75 -76 -45
-42 c-25 -23 -147 -130 -270 -238 -124 -108 -290 -254 -370 -324 -80 -70 -192
-168 -250 -219 -57 -50 -128 -113 -157 -140 -29 -27 -55 -47 -57 -45 -3 4 88
112 548 645 104 120 246 285 315 366 69 81 128 148 131 148 3 0 39 -34 80 -75z
m850 -1045 c48 -25 70 -64 70 -126 0 -41 -5 -51 -39 -85 -34 -35 -44 -39 -87
-39 -62 0 -105 25 -128 75 -32 67 -5 142 65 177 44 23 71 23 119 -2z m-2088
-478 c10 -10 21 -34 24 -53 14 -82 -92 -133 -151 -74 -36 36 -34 88 5 127 27
26 36 30 67 25 20 -4 45 -15 55 -25z m1779 -73 c29 -29 23 -79 -13 -99 -25
-13 -31 -13 -55 0 -58 33 -34 116 35 119 6 1 21 -8 33 -20z m-2716 -2070 c57
-21 127 -84 158 -143 18 -33 22 -58 22 -131 0 -81 -3 -95 -30 -144 -59 -106
-150 -156 -285 -156 -71 0 -94 4 -141 26 -225 106 -239 408 -24 534 77 46 199
51 300 14z m710 -3 c111 -50 167 -131 173 -253 5 -94 -16 -157 -73 -221 -64
-71 -126 -96 -240 -97 -77 0 -98 4 -145 26 -113 54 -174 151 -174 274 1 189
152 316 354 298 30 -3 78 -15 105 -27z m1230 24 c33 -5 77 -17 98 -26 40 -18
40 -20 11 -90 l-14 -32 -52 20 c-102 39 -218 20 -218 -36 0 -37 32 -56 136
-82 105 -26 153 -50 179 -91 23 -35 24 -118 2 -161 -51 -95 -236 -130 -387
-73 -85 32 -84 31 -60 87 12 27 23 50 24 51 2 2 30 -9 62 -24 79 -37 191 -40
225 -6 27 27 20 65 -16 81 -14 6 -62 21 -108 33 -106 27 -154 54 -178 101 -54
107 21 225 158 248 68 11 71 11 138 0z m1337 -20 c114 -43 179 -133 186 -261
4 -67 1 -83 -23 -138 -32 -70 -84 -122 -153 -154 -73 -32 -208 -30 -283 4 -68
32 -118 81 -150 145 -35 72 -33 189 3 260 77 147 252 207 420 144z m-4268
-162 c80 -132 112 -178 118 -167 5 8 53 88 107 179 l97 165 57 3 57 3 0 -296
0 -295 -65 0 -65 0 0 172 0 172 -83 -140 c-76 -127 -86 -139 -114 -142 -30 -3
-34 2 -114 134 l-84 137 -3 -166 -2 -167 -65 0 -65 0 0 288 c0 159 3 292 7
295 3 4 29 7 57 7 l51 -1 109 -181z m2181 71 c50 -61 114 -140 143 -176 28
-35 52 -61 52 -56 1 4 2 82 3 173 l2 165 65 0 65 0 3 -292 2 -293 -57 0 -58 0
-140 173 -140 172 -3 -172 -2 -173 -70 0 -70 0 0 288 c0 159 3 292 7 295 3 4
29 7 57 7 l51 -1 90 -110z m1135 -4 l0 -115 134 0 135 0 -1 113 0 112 66 3 66
3 0 -296 0 -296 -67 3 -67 3 -1 115 0 115 -130 0 -130 0 -3 -117 -3 -118 -64
0 -65 0 0 295 0 295 65 0 65 0 0 -115z m1678 53 l3 -58 -96 0 -95 0 0 -235 0
-235 -70 0 -70 0 0 235 0 235 -90 0 -90 0 0 60 0 60 253 -2 252 -3 3 -57z
m-3994 -679 c21 -10 23 -15 14 -39 -9 -27 -10 -27 -51 -15 -53 15 -91 6 -95
-22 -3 -22 -3 -23 78 -43 79 -20 110 -73 79 -132 -22 -42 -112 -60 -191 -38
-45 13 -51 21 -38 54 9 25 10 25 44 11 45 -19 100 -19 116 0 18 22 5 33 -71
55 -64 19 -72 25 -85 57 -19 44 -5 86 35 108 31 17 130 19 165 4z m426 -114
l0 -125 76 0 75 0 -3 -27 -3 -28 -107 -3 -107 -3 -3 152 c-2 83 -1 153 1 155
2 2 19 4 38 4 l33 0 0 -125z m688 105 c108 -66 94 -231 -23 -275 -110 -43
-220 18 -232 128 -7 57 24 115 76 145 48 29 134 29 179 2z m644 -8 l22 -22
-21 -21 c-20 -20 -22 -20 -47 -4 -35 23 -100 15 -127 -16 -44 -50 -11 -142 55
-155 52 -9 76 9 76 56 0 38 2 40 30 40 l30 0 0 -64 0 -64 -40 -16 c-105 -42
-213 4 -240 102 -18 70 8 132 75 174 43 28 156 22 187 -10z m533 -8 c41 -88
115 -257 115 -265 0 -5 -16 -9 -35 -9 -30 0 -37 4 -49 35 l-15 35 -68 0 -69 0
-12 -33 c-10 -29 -17 -34 -47 -35 -19 -1 -35 3 -35 8 0 8 25 67 104 243 24 53
28 57 60 57 29 0 36 -5 51 -36z m503 4 c15 -17 48 -58 75 -90 l47 -59 0 90 0
91 35 0 35 0 0 -155 0 -155 -24 0 c-28 0 -34 5 -117 105 -34 41 -62 75 -63 75
0 0 -2 -33 -2 -73 -3 -116 0 -109 -36 -105 l-33 3 -3 153 -3 152 31 0 c23 0
39 -9 58 -32z"/>
<path d="M6012 9282 c-38 -35 -49 -89 -33 -152 15 -55 43 -87 89 -100 51 -14
96 8 121 59 26 49 26 84 2 137 -39 85 -120 111 -179 56z"/>
<path d="M5611 8804 c-110 -92 -97 -268 24 -352 17 -11 43 -24 60 -28 l30 -7
-42 47 c-23 26 -49 70 -59 98 -20 62 -16 178 9 227 9 19 15 36 13 38 -2 2 -18
-8 -35 -23z"/>
<path d="M6045 8188 c-126 -69 -142 -248 -32 -345 49 -43 107 -58 163 -43 45
13 96 56 119 100 49 94 9 226 -84 278 -43 24 -131 30 -166 10z"/>
<path d="M5732 7482 c-29 -95 -5 -183 68 -245 50 -43 123 -62 183 -48 53 13
54 17 6 24 -100 13 -208 127 -232 246 l-13 63 -12 -40z"/>
<path d="M6441 6980 c-1 -106 49 -188 143 -238 42 -22 64 -27 126 -27 75 0
112 12 166 54 19 15 15 16 -70 16 -112 0 -181 25 -256 92 -50 45 -73 78 -97
138 -11 28 -12 25 -12 -35z"/>
<path d="M7835 6915 c-107 -38 -125 -161 -33 -228 56 -42 160 -17 198 46 46
75 10 162 -79 187 -43 12 -37 12 -86 -5z"/>
<path d="M7633 6470 c10 -151 119 -260 260 -260 76 0 127 16 169 51 l33 27
-50 -9 c-100 -19 -241 30 -318 109 -20 20 -50 62 -67 92 l-31 55 4 -65z"/>
<path d="M5907 5316 c-50 -18 -76 -42 -98 -91 -44 -96 1 -219 94 -254 75 -29
173 1 216 65 35 50 40 136 13 190 -24 48 -47 69 -95 89 -44 18 -80 19 -130 1z"/>
<path d="M6605 5315 c-107 -38 -147 -196 -74 -289 29 -37 91 -66 141 -66 106
1 178 75 178 184 0 137 -115 217 -245 171z"/>
<path d="M9185 5315 c-139 -49 -152 -257 -20 -332 120 -68 265 19 265 158 0
84 -32 136 -105 170 -48 22 -86 23 -140 4z"/>
<path d="M7087 4639 c-26 -15 -46 -68 -40 -102 6 -32 56 -77 84 -77 29 0 77
27 89 49 43 82 -54 176 -133 130z"/>
<path d="M8336 4589 c-10 -24 -20 -49 -23 -55 -3 -7 11 -10 39 -9 48 3 47 2
21 64 l-19 45 -18 -45z"/>
</g>
</svg>
